<?xml version="1.0" encoding="UTF-8" standalone="no"?>
<!-- Created with Inkscape (http://www.inkscape.org/) -->

<svg
   xmlns:dc="http://purl.org/dc/elements/1.1/"
   xmlns:cc="http://creativecommons.org/ns#"
   xmlns:rdf="http://www.w3.org/1999/02/22-rdf-syntax-ns#"
   xmlns:svg="http://www.w3.org/2000/svg"
   xmlns="http://www.w3.org/2000/svg"
   xmlns:sodipodi="http://sodipodi.sourceforge.net/DTD/sodipodi-0.dtd"
   xmlns:inkscape="http://www.inkscape.org/namespaces/inkscape"
   width="210mm"
   height="297mm"
   viewBox="0 0 210 297"
   version="1.1"
   id="svg8"
   inkscape:version="0.92.3 (2405546, 2018-03-11)"
   sodipodi:docname="main_images.svg">
  <sodipodi:namedview
     id="base"
     pagecolor="#ffffff"
     bordercolor="#666666"
     borderopacity="1.0"
     inkscape:pageopacity="0.0"
     inkscape:pageshadow="2"
     inkscape:zoom="1.4"
     inkscape:cx="151.77519"
     inkscape:cy="968.14742"
     inkscape:document-units="mm"
     inkscape:current-layer="layer1"
     showgrid="false"
     inkscape:window-width="1718"
     inkscape:window-height="1368"
     inkscape:window-x="1713"
     inkscape:window-y="0"
     inkscape:window-maximized="0" />
  <defs
     id="defs2" />
  <metadata
     id="metadata5">
    <rdf:RDF>
      <cc:Work
         rdf:about="">
        <dc:format>image/svg+xml</dc:format>
        <dc:type
           rdf:resource="http://purl.org/dc/dcmitype/StillImage" />
        <dc:title />
      </cc:Work>
    </rdf:RDF>
  </metadata>
  <g
     inkscape:label="Layer 1"
     inkscape:groupmode="layer"
     id="layer1">
    <flowRoot
       xml:space="preserve"
       id="flowRoot10"
       style="font-style:normal;font-weight:normal;font-size:40px;line-height:1.25;font-family:sans-serif;letter-spacing:0px;word-spacing:0px;fill:#00aad4;fill-opacity:1;stroke:none"
       transform="matrix(0.73566102,0,0,0.73566102,-60.014264,-76.035043)"
       inkscape:export-filename="C:\Users\Game\flowRoot10.png"
       inkscape:export-xdpi="96"
       inkscape:export-ydpi="96"><flowRegion
         id="flowRegion12"
         style="fill:#00aad4"><rect
           id="rect14"
           width="72.73098"
           height="54.548237"
           x="118.18785"
           y="141.66156"
           style="fill:#00aad4" /></flowRegion><flowPara
         id="flowPara16">?</flowPara></flowRoot>    <g
       id="g229"
       inkscape:label="Gear7"
       transform="translate(83.671937,43.889813)"
       style="fill:#808080"
       inkscape:export-filename="C:\Users\Game\g229.png"
       inkscape:export-xdpi="96"
       inkscape:export-ydpi="96">
      <path
         id="path225"
         style="fill:#808080;stroke:#000000;stroke-width:0.26458332"
         d="m 5.12964,-1.18049 1.94275,-0.44709 0.11205,-0.01222 2.25594,0.83415 v 1.6113 L 7.18444,1.6398 7.07239,1.62758 5.12964,1.18049 4.12122,3.27449 5.68206,4.51464 5.76148,4.59462 6.51586,6.87847 5.25609,7.8831 3.19738,6.63942 3.13707,6.5442 2.27533,4.74654 0.00944,5.26371 0.01302,7.25724 0,7.36921 -1.31523,9.38296 -2.88613,9.02441 -3.19738,6.63942 -3.16053,6.5329 -2.29235,4.73834 -4.10945,3.28925 -5.66582,4.53499 -5.76148,4.59462 -8.15593,4.82189 -8.85505,3.37016 -7.18444,1.6398 -7.07818,1.60219 -5.13384,1.16208 v -2.32416 l -1.94434,-0.44011 -0.10626,-0.03761 -1.67061,-1.73036 0.69912,-1.45173 2.39445,0.22727 0.09566,0.05963 1.55637,1.24574 1.8171,-1.44909 -0.86818,-1.79456 -0.03685,-0.10652 0.31125,-2.38499 1.5709,-0.35855 L 0,-7.36921 0.01302,-7.25724 0.00944,-5.26371 2.27533,-4.74654 3.13707,-6.5442 3.19738,-6.63942 5.25609,-7.8831 6.51586,-6.87847 5.76148,-4.59462 5.68206,-4.51464 4.12122,-3.27449 Z"
         inkscape:connector-curvature="0" />
      <circle
         id="path227"
         style="fill:#808080;stroke:#000000;stroke-width:0.26458332"
         cx="0"
         cy="0"
         r="1.3229166" />
    </g>
  </g>
</svg>
