<?xml version="1.0" encoding="UTF-8" standalone="no"?>
<!-- Created with Inkscape (http://www.inkscape.org/) -->

<svg
   xmlns:dc="http://purl.org/dc/elements/1.1/"
   xmlns:cc="http://creativecommons.org/ns#"
   xmlns:rdf="http://www.w3.org/1999/02/22-rdf-syntax-ns#"
   xmlns:svg="http://www.w3.org/2000/svg"
   xmlns="http://www.w3.org/2000/svg"
   xmlns:sodipodi="http://sodipodi.sourceforge.net/DTD/sodipodi-0.dtd"
   xmlns:inkscape="http://www.inkscape.org/namespaces/inkscape"
   version="1.1"
   id="svg20"
   width="853"
   height="584"
   viewBox="0 0 853 584"
   sodipodi:docname="try_again.svg"
   inkscape:version="0.92.3 (2405546, 2018-03-11)"
   inkscape:export-filename="C:\Users\Game\Desktop\try_again.png"
   inkscape:export-xdpi="96"
   inkscape:export-ydpi="96">
  <metadata
     id="metadata26">
    <rdf:RDF>
      <cc:Work
         rdf:about="">
        <dc:format>image/svg+xml</dc:format>
        <dc:type
           rdf:resource="http://purl.org/dc/dcmitype/StillImage" />
      </cc:Work>
    </rdf:RDF>
  </metadata>
  <defs
     id="defs24" />
  <sodipodi:namedview
     pagecolor="#ffffff"
     bordercolor="#666666"
     borderopacity="1"
     objecttolerance="10"
     gridtolerance="10"
     guidetolerance="10"
     inkscape:pageopacity="0"
     inkscape:pageshadow="2"
     inkscape:window-width="3440"
     inkscape:window-height="1377"
     id="namedview22"
     showgrid="false"
     inkscape:zoom="1.1095529"
     inkscape:cx="630.22108"
     inkscape:cy="134.85175"
     inkscape:window-x="-8"
     inkscape:window-y="-8"
     inkscape:window-maximized="1"
     inkscape:current-layer="svg20" />
  <path
     style="fill:none;stroke:#000000;stroke-width:1px;stroke-linecap:butt;stroke-linejoin:miter;stroke-opacity:1"
     d="m 351.26808,272.66986 c 6.47623,-12.90677 19.07803,-22.13819 47.73976,-21.73366 l 179.25632,-15.04639 c -34.52688,7.38782 -49.22439,93.55823 3.34364,108.29682 l -126.68685,2.2291 2.60061,-20.99064 -4.12276,-9.74912 -1.84847,-6.13216 -1.64484,-16.44058 -18.9473,-25.07731 z"
     id="path30"
     inkscape:connector-curvature="0"
     sodipodi:nodetypes="ccccccccccc" />
  <path
     style="fill:none;stroke:#000000;stroke-width:1px;stroke-linecap:butt;stroke-linejoin:miter;stroke-opacity:1"
     d="m 578.26416,235.88981 c 62.20305,10.0188 40.08615,117.06883 3.34364,108.29682"
     id="path32"
     inkscape:connector-curvature="0"
     sodipodi:nodetypes="cc" />
  <path
     style="fill:none;stroke:#000000;stroke-width:1px;stroke-linecap:butt;stroke-linejoin:miter;stroke-opacity:1"
     d="m 429.77926,269.21822 -55.62699,22.59231 -0.13136,8.01239 19.3359,82.87699 57.51431,-25.47062 2.22244,-11.06891 2.83229,-20.47963 -5.66458,-15.68652 -1.56139,-16.44906 z"
     id="path57"
     inkscape:connector-curvature="0" />
  <path
     style="fill:none;stroke:#000000;stroke-width:1px;stroke-linecap:butt;stroke-linejoin:miter;stroke-opacity:1"
     d="m 429.77926,269.21822 -83.25553,5.02613 -149.1264,52.48181 40.56813,-1.23245 51.96829,-19.30838 24.54629,0.82164 34.50859,-15.20021 25.16364,0.004"
     id="path59"
     inkscape:connector-curvature="0" />
  <path
     style="fill:none;stroke:#000000;stroke-width:1px;stroke-linecap:butt;stroke-linejoin:miter;stroke-opacity:1"
     d="m 348.98863,291.80676 20.42487,91.98867 23.94331,-1.09552"
     id="path61"
     inkscape:connector-curvature="0" />
  <path
     style="fill:none;stroke:#000000;stroke-width:1px;stroke-linecap:butt;stroke-linejoin:miter;stroke-opacity:1"
     d="m 369.4135,383.79543 -34.89447,14.42564 -20.03899,-91.2141"
     id="path63"
     inkscape:connector-curvature="0" />
  <path
     style="fill:none;stroke:#000000;stroke-width:1px;stroke-linecap:butt;stroke-linejoin:miter;stroke-opacity:1"
     d="m 334.51903,398.22107 -23.78282,0.97471 -20.80246,-93.01045"
     id="path65"
     inkscape:connector-curvature="0" />
  <path
     style="fill:none;stroke:#000000;stroke-width:1px;stroke-linecap:butt;stroke-linejoin:miter;stroke-opacity:1"
     d="m 310.73621,399.19578 -46.78588,19.29917 -22.61317,-22.61317 -7.21282,-33.33494 3.84112,-37.05313"
     id="path67"
     inkscape:connector-curvature="0" />
  <path
     style="fill:none;stroke:#000000;stroke-width:1px;stroke-linecap:butt;stroke-linejoin:miter;stroke-opacity:1"
     d="m 197.39733,326.72616 -2.45617,33.67633 8.38247,33.91976 19.68906,25.14741 40.93764,-0.97471"
     id="path69"
     inkscape:connector-curvature="0" />
  <path
     style="fill:none;stroke:#000000;stroke-width:1px;stroke-linecap:butt;stroke-linejoin:miter;stroke-opacity:1"
     d="m 409.96126,375.02307 88.50329,-1.55953 36.64894,51.85435 -19.68906,1.36459 20.07894,27.87659 -20.27388,-0.58483 25.34235,34.30965 -47.95552,-0.77977 z"
     id="path71"
     inkscape:connector-curvature="0" />
  <path
     style="fill:none;stroke:#000000;stroke-width:1px;stroke-linecap:butt;stroke-linejoin:miter;stroke-opacity:1"
     d="m 454.0667,347.73131 48.58909,0.0975 -4.19124,25.63476 -81.92402,1.21839 35.57676,-16.47253 z"
     id="path73"
     inkscape:connector-curvature="0" />
  <path
     style="fill:none;stroke:#000000;stroke-width:1px;stroke-linecap:butt;stroke-linejoin:miter;stroke-opacity:1"
     d="m 502.65579,347.82881 57.91654,-1.93518 12.17907,17.09539 -37.63791,62.32887"
     id="path75"
     inkscape:connector-curvature="0" />
  <path
     style="fill:none;stroke:#000000;stroke-width:1px;stroke-linecap:butt;stroke-linejoin:miter;stroke-opacity:1"
     d="m 562.13662,380.86655 8.82703,11.9556 -35.46028,61.73692"
     id="path77"
     inkscape:connector-curvature="0" />
  <path
     style="fill:none;stroke:#000000;stroke-width:1px;stroke-linecap:butt;stroke-linejoin:miter;stroke-opacity:1"
     d="m 561.91315,409.24713 12.84947,19.77702 -2.45816,27.1515 -12.40254,21.89998 -19.33008,10.20826"
     id="path79"
     inkscape:connector-curvature="0" />
  <path
     style="fill:none;stroke:#000000;stroke-width:1px;stroke-linecap:butt;stroke-linejoin:miter;stroke-opacity:1"
     d="m 399.46582,249.55799 -12.00926,-14.93257 -11.14016,-3.00231 -1.73819,-4.26645 89.91142,-7.6638 16.67074,23.22843 z"
     id="path81"
     inkscape:connector-curvature="0" />
  <path
     style="fill:none;stroke:#000000;stroke-width:1px;stroke-linecap:butt;stroke-linejoin:miter;stroke-opacity:1"
     d="m 481.16037,242.92129 42.74348,-3.16033 9.08595,-69.7643 -56.09588,-27.6529 -12.40429,77.3491"
     id="path83"
     inkscape:connector-curvature="0" />
  <path
     style="fill:none;stroke:#000000;stroke-width:1px;stroke-linecap:butt;stroke-linejoin:miter;stroke-opacity:1"
     d="m 476.89392,142.34376 -21.33223,1.73819 6.47868,-40.92629 55.14777,27.49488 -3.95041,29.23306"
     id="path85"
     inkscape:connector-curvature="0" />
  <path
     style="fill:none;stroke:#000000;stroke-width:1px;stroke-linecap:butt;stroke-linejoin:miter;stroke-opacity:1"
     d="m 462.04037,103.15566 -22.28033,0.9481 10.74512,-53.409591 18.32992,-4.424463 19.91009,10.587109 15.64363,22.754382 -6.32066,40.926283"
     id="path87"
     inkscape:connector-curvature="0" />
  <path
     style="fill:none;stroke:#000000;stroke-width:1px;stroke-linecap:butt;stroke-linejoin:miter;stroke-opacity:1"
     d="M 450.50516,50.694169 400.72995,57.96293 374.57821,227.35666"
     id="path89"
     inkscape:connector-curvature="0" />
  <path
     style="fill:none;stroke:#000000;stroke-width:1px;stroke-linecap:butt;stroke-linejoin:miter;stroke-opacity:1"
     d="M 183.24469,325.66967 C 180.21154,158.60869 244.76444,34.714805 399.46582,52.175193"
     id="path100"
     inkscape:connector-curvature="0"
     sodipodi:nodetypes="cc" />
  <path
     style="fill:none;stroke:#000000;stroke-width:1px;stroke-linecap:butt;stroke-linejoin:miter;stroke-opacity:1"
     d="m 183.24469,325.66967 c 42.08865,228.09694 202.55699,298.22809 308.94609,164.8085"
     id="path102"
     inkscape:connector-curvature="0"
     sodipodi:nodetypes="cc" />
  <path
     style="fill:none;stroke:#000000;stroke-width:1px;stroke-linecap:butt;stroke-linejoin:miter;stroke-opacity:1"
     d="m 530.84447,195.1046 13.06833,42.58472"
     id="path104"
     inkscape:connector-curvature="0" />
  <path
     style="fill:none;stroke:#000000;stroke-width:1px;stroke-linecap:butt;stroke-linejoin:miter;stroke-opacity:1"
     d="M 337.97398,53.606161 177.99963,86.502296 C 12.221733,174.17974 -4.8192529,452.39792 198.7287,534.43048 l 154.56677,22.5316"
     id="path115"
     inkscape:connector-curvature="0"
     sodipodi:nodetypes="cccc" />
  <path
     style="fill:#999999;fill-opacity:1;stroke-width:1.27457976"
     d="m 456.49941,341.86666 c 2.29876,-11.99096 2.21209,-16.41577 -0.44287,-22.60952 -1.47905,-3.4505 -3.30064,-10.89446 -4.04797,-16.54214 -1.31256,-9.91926 -1.66814,-10.68964 -10.45479,-22.65076 l -9.09602,-12.38225 -8.28477,-0.0171 c -4.55662,-0.009 -20.90311,0.81499 -36.32552,1.83193 -33.56983,2.21358 -33.77637,2.21843 -33.77637,0.79444 0,-0.61855 2.33622,-3.46085 5.19159,-6.31622 7.46114,-7.46114 16.3102,-10.38568 35.59496,-11.76385 8.76274,-0.62622 50.04217,-4.01763 91.73207,-7.53648 41.68989,-3.51884 77.18577,-6.39789 78.87971,-6.39789 2.88465,0 2.71275,0.39251 -2.71186,6.19186 -7.13797,7.63105 -10.29307,13.68387 -13.80429,26.48235 -2.26625,8.26056 -2.6195,12.2707 -2.11342,23.99168 0.9222,21.35781 7.32216,34.88447 20.69658,43.74332 l 5.8437,3.87071 -10.55594,0.71114 c -5.80577,0.39113 -32.25644,1.0313 -58.77924,1.42259 l -48.22329,0.71144 z"
     id="path126"
     inkscape:connector-curvature="0" />
  <path
     style="fill:#999999;fill-opacity:1;stroke-width:1.27457976"
     d="m 577.13649,341.24866 c -24.68491,-9.47523 -35.58605,-43.56735 -24.24686,-75.8294 5.86892,-16.69812 18.72733,-29.44393 27.98627,-27.74119 17.41313,3.2023 31.11387,19.37263 34.52487,40.74805 4.01789,25.17856 -6.93093,56.26755 -22.26974,63.23455 -6.43747,2.92395 -7.366,2.90003 -15.99454,-0.41201 z"
     id="path128"
     inkscape:connector-curvature="0" />
  <path
     style="fill:none;stroke:#000000;stroke-width:0.98981297px;stroke-linecap:butt;stroke-linejoin:miter;stroke-opacity:1"
     d="M 547.06722,298.97527 V 184.62741"
     id="path134"
     inkscape:connector-curvature="0" />
  <path
     style="fill:none;stroke:#000000;stroke-width:1px;stroke-linecap:butt;stroke-linejoin:miter;stroke-opacity:1"
     d="M 617.81644,290.41327 V 184.28943"
     id="path136"
     inkscape:connector-curvature="0" />
  <path
     style="fill:none;stroke:#000000;stroke-width:1px;stroke-linecap:butt;stroke-linejoin:miter;stroke-opacity:1"
     d="m 564.97984,185.30336 37.28979,0.22532"
     id="path138"
     inkscape:connector-curvature="0" />
  <path
     sodipodi:type="star"
     style="fill:#000000;fill-opacity:1"
     id="path140"
     sodipodi:sides="3"
     sodipodi:cx="562.3887"
     sodipodi:cy="185.30336"
     sodipodi:r1="5.296124"
     sodipodi:r2="2.648062"
     sodipodi:arg1="1.0595656"
     sodipodi:arg2="2.1067632"
     inkscape:flatsided="true"
     inkscape:rounded="0"
     inkscape:randomized="0"
     d="m 564.97981,189.92234 -7.88686,-4.68448 8.00031,-4.48798 z"
     inkscape:transform-center-x="1.2955669"
     inkscape:transform-center-y="0.032750564" />
  <path
     sodipodi:type="star"
     style="fill:#000000;fill-opacity:1"
     id="path140-2"
     sodipodi:sides="3"
     sodipodi:cx="603.79053"
     sodipodi:cy="175.91998"
     sodipodi:r1="5.296124"
     sodipodi:r2="2.648062"
     sodipodi:arg1="1.0595656"
     sodipodi:arg2="2.1067632"
     inkscape:flatsided="true"
     inkscape:rounded="0"
     inkscape:randomized="0"
     d="m 606.38166,180.53896 -7.88685,-4.68448 8.0003,-4.48797 z"
     inkscape:transform-center-x="2.0616147"
     inkscape:transform-center-y="-8.568834"
     transform="rotate(179.43894,604.33093,180.59804)" />
</svg>
