<?xml version="1.0" encoding="UTF-8" standalone="no"?>
<!-- Created with Inkscape (http://www.inkscape.org/) -->

<svg
   xmlns:dc="http://purl.org/dc/elements/1.1/"
   xmlns:cc="http://creativecommons.org/ns#"
   xmlns:rdf="http://www.w3.org/1999/02/22-rdf-syntax-ns#"
   xmlns:svg="http://www.w3.org/2000/svg"
   xmlns="http://www.w3.org/2000/svg"
   xmlns:sodipodi="http://sodipodi.sourceforge.net/DTD/sodipodi-0.dtd"
   xmlns:inkscape="http://www.inkscape.org/namespaces/inkscape"
   version="1.1"
   id="svg281"
   width="1080"
   height="810"
   viewBox="0 0 1080 810"
   sodipodi:docname="work_bench.svg"
   inkscape:version="0.92.3 (2405546, 2018-03-11)">
  <metadata
     id="metadata287">
    <rdf:RDF>
      <cc:Work
         rdf:about="">
        <dc:format>image/svg+xml</dc:format>
        <dc:type
           rdf:resource="http://purl.org/dc/dcmitype/StillImage" />
        <dc:title></dc:title>
      </cc:Work>
    </rdf:RDF>
  </metadata>
  <defs
     id="defs285" />
  <sodipodi:namedview
     pagecolor="#ffffff"
     bordercolor="#666666"
     borderopacity="1"
     objecttolerance="10"
     gridtolerance="10"
     guidetolerance="10"
     inkscape:pageopacity="0"
     inkscape:pageshadow="2"
     inkscape:window-width="1718"
     inkscape:window-height="1368"
     id="namedview283"
     showgrid="false"
     inkscape:zoom="0.53148148"
     inkscape:cx="286.80555"
     inkscape:cy="858.47283"
     inkscape:window-x="1713"
     inkscape:window-y="0"
     inkscape:window-maximized="0"
     inkscape:current-layer="layer3" />
  <g
     inkscape:groupmode="layer"
     id="layer4"
     inkscape:label="Layer 4" />
  <g
     inkscape:groupmode="layer"
     id="layer1"
     inkscape:label="Layer 3" />
  <g
     inkscape:groupmode="layer"
     id="layer2"
     inkscape:label="Layer 2" />
  <g
     inkscape:groupmode="layer"
     id="layer3"
     inkscape:label="Layer 1">
    <g
       id="g780"
       transform="translate(50.801394,9.4076655)"
       inkscape:export-xdpi="96"
       inkscape:export-ydpi="96">
      <g
         transform="translate(-7.5261332,75.261324)"
         id="g670">
        <g
           transform="translate(-20.866057,-52.513548)"
           id="g684">
          <path
             inkscape:connector-curvature="0"
             id="path291"
             d="M -19.956672,244.56095 1043.734,257.20018 1047.7253,240.56962 -18.626227,226.59995 Z"
             style="fill:none;stroke:#000000;stroke-width:1px;stroke-linecap:butt;stroke-linejoin:miter;stroke-opacity:1" />
          <path
             inkscape:connector-curvature="0"
             id="path293"
             d="m -18.626227,226.59995 176.283937,-54.54824 717.77498,13.96967 172.29261,54.54824"
             style="fill:none;stroke:#000000;stroke-width:1px;stroke-linecap:butt;stroke-linejoin:miter;stroke-opacity:1" />
          <path
             inkscape:connector-curvature="0"
             id="path295"
             d="M 59.738676,245.54007 133.7097,640.36829 h 54.54824 l -68.4278,-394.24024"
             style="fill:none;stroke:#000000;stroke-width:1px;stroke-linecap:butt;stroke-linejoin:miter;stroke-opacity:1" />
          <path
             inkscape:connector-curvature="0"
             id="path297"
             d="M 208.21461,246.55662 244.13662,515.9717 H 282.0543 L 250.78885,247.88707"
             style="fill:none;stroke:#000000;stroke-width:1px;stroke-linecap:butt;stroke-linejoin:miter;stroke-opacity:1" />
          <path
             inkscape:connector-curvature="0"
             id="path299"
             d="m 786.29289,253.87407 -31.93068,261.4324 33.26112,-0.66522 32.5959,-260.76718"
             style="fill:none;stroke:#000000;stroke-width:1px;stroke-linecap:butt;stroke-linejoin:miter;stroke-opacity:1" />
          <path
             inkscape:connector-curvature="0"
             id="path301"
             d="m 897.38503,253.87407 -55.21346,394.47688 54.54824,-0.66522 56.5439,-391.816"
             style="fill:none;stroke:#000000;stroke-width:1px;stroke-linecap:butt;stroke-linejoin:miter;stroke-opacity:1" />
          <path
             inkscape:connector-curvature="0"
             id="path331"
             d="m 935.35228,255.15022 c -25.26746,-0.17746 -37.39548,-0.58225 -37.39548,-1.24813 0,-0.54202 -0.47956,-0.68911 -1.0657,-0.32685 -1.17239,0.72457 -36.90487,0.67029 -87.83673,-0.13343 -18.10976,-0.28578 -176.44077,-2.18172 -351.84669,-4.21322 -351.20472,-4.06754 -475.922723,-5.6114 -476.06067,-5.89307 -0.355205,-0.72529 1.099067,-14.73805 1.579314,-15.21763 0.333165,-0.33269 213.487346,2.18138 473.675966,5.58683 557.12111,7.29182 589.27381,7.73909 589.73851,8.20375 0.1951,0.19511 -0.3899,3.30592 -1.3001,6.91291 l -1.6549,6.55817 -35.219,0.0167 c -19.37052,0.009 -52.04702,-0.10154 -72.61452,-0.24599 z"
             style="fill:#784421;fill-opacity:1;stroke-width:0.94076657" />
          <path
             inkscape:connector-curvature="0"
             id="path333"
             d="m 244.62489,512.44401 c -0.28885,-1.68162 -8.13444,-60.42073 -17.43464,-130.53135 -9.30019,-70.11063 -17.14578,-128.84974 -17.43463,-130.53136 l -0.52519,-3.05749 h 20.22648 20.22648 l 0.51526,3.05749 c 0.61158,3.62912 30.6153,261.3782 30.6153,263.00293 0,0.82323 -4.69313,1.11728 -17.83194,1.11728 h -17.83193 z"
             style="fill:#784421;fill-opacity:1;stroke-width:0.94076657" />
          <path
             inkscape:connector-curvature="0"
             id="path335"
             d="M 97.93368,444.23724 C 77.808593,336.74356 61.120838,248.1968 60.84978,247.46666 c -0.420402,-1.13242 3.762482,-1.24421 28.461066,-0.76066 15.924644,0.31177 29.175924,0.78888 29.447284,1.06024 0.52524,0.52525 67.89669,387.4807 67.94855,390.27011 0.0284,1.52916 -1.82761,1.64626 -26.07566,1.64514 l -26.10627,-0.001 z"
             style="fill:#784421;fill-opacity:1;stroke-width:0.94076657" />
          <path
             inkscape:connector-curvature="0"
             id="path337"
             d="m 755.90265,512.49625 c 8.8e-4,-1.19293 6.98607,-59.31313 15.52265,-129.15601 8.53658,-69.84288 15.52105,-127.34838 15.52105,-127.79 0,-0.89179 30.55894,-0.50501 31.4592,0.39818 0.48104,0.48259 -31.12259,256.79527 -31.72021,257.2582 -0.11515,0.0892 -7.08873,0.45387 -15.49683,0.81038 l -15.28745,0.64819 0.002,-2.16894 z"
             style="fill:#784421;fill-opacity:1;stroke-width:0.94076657" />
          <path
             inkscape:connector-curvature="0"
             id="path339"
             d="m 843.85669,643.21057 c 0.3188,-2.19905 12.5891,-89.86937 27.26734,-194.82295 14.67825,-104.95357 26.86807,-191.00503 27.0885,-191.22546 0.22042,-0.22043 12.44035,-0.28834 27.15538,-0.15092 l 26.75461,0.24985 -26.95342,186.74216 c -14.82438,102.70819 -27.47874,190.44643 -28.12079,194.97387 l -1.16738,8.2317 h -26.30194 -26.30193 z"
             style="fill:#784421;fill-opacity:1;stroke-width:0.94076657" />
          <path
             inkscape:connector-curvature="0"
             id="path656"
             d="m 579.63014,233.5867 c -222.49129,-2.97116 -446.44077,-5.93341 -497.665505,-6.58277 -51.224739,-0.64937 -93.239708,-1.26652 -93.366599,-1.37145 -0.126891,-0.10494 37.927464,-11.99685 84.565233,-26.42647 l 84.795941,-26.23569 304.91212,5.93752 c 167.70167,3.26564 328.83111,6.36225 358.06543,6.88135 l 53.15331,0.94383 80.43554,25.35113 c 44.23955,13.94312 81.49389,25.72167 82.78749,26.17454 3.9088,1.36847 -35.4004,0.9672 -457.68296,-4.67199 z"
             style="fill:#784421;fill-opacity:1;stroke-width:0.94076657" />
        </g>
      </g>
      <g
         transform="translate(3.326112,102.44425)"
         id="g737">
        <g
           id="g641"
           transform="translate(-45.156794,-18.815335)">
          <path
             sodipodi:nodetypes="ccccccccccccccccccccccccccccccc"
             inkscape:connector-curvature="0"
             id="path312"
             d="m 913.35036,146.10804 -8.81419,1.66306 -3.49242,5.15547 h -3.32611 l -1.66306,8.8142 29.10348,9.1468 c 9.72744,6.1869 28.35829,6.90253 36.25462,2.66089 19.02231,2.05992 37.62303,0.74718 56.21132,-0.66522 l 0.6652,-2.66089 3.1598,-27.44042 -13.1381,-4.82286 -0.1663,-9.97834 7.65,-41.742714 -2.8272,-5.82069 3.8251,-16.46426 -13.1382,0.16631 -0.3326,-12.80553 c 0.3333,-2.10588 2.1107,-2.76759 4.6566,-2.66089 h 17.1294 c 13.0745,-7.53931 11.4979,-24.247503 5.1555,-27.939344 l -109.42908,0.665223 c -5.46984,2.415291 -7.08791,6.481343 -9.64573,10.144641 l 0.16631,10.14464 c 1.66187,3.05606 3.72264,3.71867 5.82069,4.15764 l 15.63273,0.33261 c 5.44805,-0.0408 6.57768,2.2047 4.49025,6.15331 l -10.31095,32.7622 -5.65439,3.32612 -8.64789,24.114314 -2.9935,27.60673 z"
             style="fill:none;stroke:#000000;stroke-width:1px;stroke-linecap:butt;stroke-linejoin:miter;stroke-opacity:1" />
          <path
             sodipodi:nodetypes="ccccccccc"
             inkscape:connector-curvature="0"
             id="path316"
             d="m 934.80379,165.39949 c 4.48584,1.44572 9.25589,2.60724 16.79686,0.99783 l 0.16631,-1.82936 -2.9935,-0.1663 -0.16631,-3.65873 -8.14897,-0.33261 -2.49459,3.15981 -3.32611,0.1663 z"
             style="fill:none;stroke:#000000;stroke-width:1px;stroke-linecap:butt;stroke-linejoin:miter;stroke-opacity:1" />
          <path
             inkscape:connector-curvature="0"
             id="path629"
             d="m 940.85383,166.10616 c -1.61214,-0.2233 -3.5172,-0.65477 -4.23345,-0.95881 l -1.30228,-0.55281 1.41115,-0.16436 c 0.89495,-0.10424 1.93139,-0.76413 2.83332,-1.80397 l 1.42216,-1.63962 3.3492,0.31128 3.34921,0.31127 0.29081,1.81864 c 0.26751,1.6729 0.41287,1.81979 1.814,1.83294 1.06966,0.0101 1.3131,0.13131 0.81761,0.40727 -1.13702,0.63325 -6.57826,0.87774 -9.75173,0.43817 z"
             style="fill:#e6e6e6;fill-opacity:1;stroke-width:0.47038329" />
        </g>
        <path
           transform="translate(-45.156794,-18.815335)"
           inkscape:connector-curvature="0"
           id="path631"
           d="m 940.53792,175.09208 c -4.81638,-0.66682 -8.40618,-1.69809 -12.9294,-3.71435 -2.2275,-0.99292 -9.97683,-3.65113 -17.22073,-5.90713 -7.2439,-2.256 -13.23695,-4.15989 -13.31788,-4.23088 -0.15658,-0.13733 0.73624,-5.54543 1.14402,-6.92971 0.16735,-0.5681 0.72216,-0.82317 1.79053,-0.82317 1.35048,0 1.76254,-0.32305 3.22868,-2.53122 l 1.68063,-2.53121 4.61854,-0.84627 c 2.5402,-0.46545 4.69675,-0.90396 4.79233,-0.97445 0.0956,-0.0705 -0.73727,-1.56697 -1.85078,-3.32548 l -2.02457,-3.1973 1.46454,-13.66124 1.46455,-13.66124 4.29624,-11.99979 4.29623,-11.999797 2.77632,-1.52629 2.77632,-1.52629 2.63444,-8.326612 c 1.44894,-4.579637 3.9965,-12.592869 5.66125,-17.807183 1.66474,-5.214314 3.0268,-10.014744 3.0268,-10.667621 0,-2.889388 -2.54667,-3.599347 -12.93554,-3.606163 -9.04974,-0.0059 -10.95864,-0.367793 -12.67012,-2.401769 -1.12661,-1.3389 -1.20619,-1.758454 -1.20619,-6.359008 0,-4.798426 0.041,-4.988672 1.58856,-7.372446 1.82592,-2.812539 2.88662,-3.98258 5.23243,-5.771817 l 1.67426,-1.277022 54.66788,-0.37864 54.66784,-0.378641 1.5066,1.590123 c 2.793,2.947894 3.6594,8.98704 2.0601,14.359157 -0.8609,2.891768 -3.4866,6.704774 -6.0538,8.791095 l -2.4871,2.021267 h -10.0956 c -13.0005,0 -12.0474,-0.746791 -11.8715,9.301954 l 0.1295,7.396653 6.4369,-0.164213 6.4369,-0.164213 -0.6408,2.751321 c -0.3524,1.513225 -1.1886,5.131992 -1.8582,8.041698 l -1.2173,5.290377 1.4279,2.82864 1.4279,2.828636 -3.7875,20.661644 c -3.5479,19.35412 -3.7791,21.0097 -3.6548,26.16157 l 0.1328,5.49993 6.3316,2.31235 c 3.4824,1.2718 6.3877,2.36836 6.4561,2.43681 0.2628,0.26279 -3.1645,28.26414 -3.4982,28.58087 -1.1953,1.13449 -37.27331,2.10519 -52.32954,1.40796 -3.16068,-0.14636 -4.68803,0.0289 -7.29094,0.83673 -3.86352,1.19904 -11.87943,1.65583 -16.8882,0.96238 z m 10.18524,-7.81408 c 1.63617,-0.25071 1.76393,-0.38518 1.76393,-1.85651 0,-1.43584 -0.129,-1.58622 -1.36082,-1.58622 -1.43608,0 -1.93186,-0.67382 -1.93186,-2.62558 0,-0.96904 -0.22638,-1.13798 -1.52874,-1.14083 -0.84081,-0.002 -2.90462,-0.12057 -4.58624,-0.26383 l -3.05749,-0.2605 -1.17596,1.66204 c -0.96752,1.36744 -1.47472,1.66433 -2.8615,1.67498 -2.07455,0.016 -2.20077,0.13595 -1.94879,1.85282 0.18618,1.26847 0.44376,1.43158 3.32921,2.10824 5.19794,1.21895 7.71013,1.30083 13.35826,0.43539 z"
           style="fill:#ff0000;fill-opacity:1;stroke-width:0.47038329" />
        <g
           id="g635"
           transform="translate(-86.101912,-6.3510269)">
          <g
             id="g692">
            <path
               style="fill:none;stroke:#000000;stroke-width:1px;stroke-linecap:butt;stroke-linejoin:miter;stroke-opacity:1"
               d="m 1060.5216,109.91825 c 0.9006,0.61013 2.1803,0.7147 1.8294,2.99351 l -4.324,18.12731 -3.3261,1.33044 -10.6435,-2.82719 1.1641,-5.32178 -2.4946,1.82936 c -2.4783,0.84633 -4.7583,1.19678 -5.4881,-2.32828 -0.053,-3.62753 1.3845,-5.01902 3.9914,-4.65656 l 4.6565,-3.1598 0.1663,-5.48809 z"
               id="path318"
               inkscape:connector-curvature="0"
               sodipodi:nodetypes="cccccccccccc" />
            <path
               style="fill:#999999;fill-opacity:1;stroke-width:0.47038329"
               d="m 1049.8434,130.37978 c -4.9736,-1.38787 -4.834,-1.19279 -4.0321,-5.63572 l 0.3712,-2.05689 -2.0502,1.39477 c -2.6125,1.77732 -3.8626,2.07996 -5.0773,1.22919 -1.7744,-1.24289 -1.0023,-5.33074 1.0069,-5.33074 0.5523,0 2.2364,-0.79377 3.7424,-1.76394 l 2.7382,-1.76394 v -2.63165 -2.63165 l 6.8845,-0.31281 c 7.1066,-0.32292 8.1746,-0.12432 8.1619,1.51786 0,0.42106 -0.8488,4.25817 -1.879,8.52689 -1.0302,4.26873 -1.9778,8.2123 -2.1057,8.76348 -0.1279,0.55119 -0.6053,1.10927 -1.0609,1.24019 -0.4556,0.13092 -1.1458,0.34241 -1.5339,0.46997 -0.388,0.12757 -2.7164,-0.32919 -5.1742,-1.01501 z"
               id="path614"
               inkscape:connector-curvature="0" />
          </g>
        </g>
        <g
           id="g645"
           transform="translate(109.12892,17.404177)">
          <path
             sodipodi:nodetypes="cccccccccccccc"
             inkscape:connector-curvature="0"
             id="path314"
             d="m 710.29122,85.406499 c -5.63604,-3.76132 -6.81184,-0.48472 -9.64572,0.66522 -1.17613,3.08459 -0.69537,5.83781 0.33261,8.48158 2.53141,3.53003 5.7342,3.70316 9.14681,2.8272 l 1.99566,-1.99567 69.51574,-6.81853 c 12.96575,17.202111 30.74435,9.32787 37.08615,-2.82719 l 57.54179,-6.48592 c 4.5251,0.61787 8.6351,4.76471 13.9696,-1.49675 1.1133,-3.88393 2.5274,-7.63809 0.6653,-12.80553 -5.6966,-3.13595 -10.2641,0.50288 -15.1339,2.32828 l -55.71234,5.48808 c -3.07266,-10.90451 -25.62447,-16.600564 -37.25246,4.65656 z"
             style="fill:none;stroke:#000000;stroke-width:1px;stroke-linecap:butt;stroke-linejoin:miter;stroke-opacity:1" />
          <path
             inkscape:connector-curvature="0"
             id="path612"
             d="m 796.12901,97.489386 c -3.85348,-0.653792 -7.78044,-2.917343 -11.19223,-6.45134 l -3.10185,-3.21296 -34.90474,3.430412 c -34.20287,3.361432 -34.93289,3.454088 -36.30409,4.607879 -2.75662,2.319539 -7.69886,1.047982 -9.11679,-2.345599 -0.71161,-1.703127 -0.90669,-5.770391 -0.31728,-6.615004 0.59196,-0.84826 3.70435,-2.562278 4.65269,-2.562278 0.49686,0 1.69697,0.404594 2.66692,0.899098 l 1.76352,0.899098 35.849,-3.953981 c 19.71695,-2.174689 36.09733,-3.955155 36.40085,-3.956589 0.30352,-0.0015 1.53099,-1.475443 2.72772,-3.275574 6.32541,-9.514776 16.45935,-13.383651 25.85172,-9.869515 3.10639,1.162249 7.06112,4.589015 7.86653,6.816333 0.32265,0.892273 0.70287,1.619108 0.84493,1.615189 0.14206,-0.0039 12.8528,-1.261613 28.2461,-2.794876 l 27.9878,-2.78775 4.18367,-1.726389 c 3.5539,-1.46651 4.57353,-1.69406 6.77346,-1.511624 3.31453,0.274866 3.85994,0.991157 3.85994,5.069227 0,4.409695 -1.07143,7.684997 -2.99354,9.151063 -2.22919,1.700283 -3.84073,1.866392 -7.35489,0.758099 -1.68162,-0.530349 -3.79834,-0.958377 -4.70383,-0.951172 -0.90549,0.0072 -14.18808,1.436303 -29.51687,3.175774 l -27.87053,3.162673 -1.60329,2.380748 c -4.87305,7.236058 -13.26287,11.309998 -20.69492,10.049058 z"
             style="fill:#999999;fill-opacity:1;stroke-width:0.47038329" />
        </g>
      </g>
    </g>
  </g>
</svg>
